Coordinates
version=1
nRows=14
nColumns=36
inDegrees=yes

Units are S.I. units (second, meters, Newtons, ...)
If the header above contains a line with 'inDegrees', this indicates whether rotational values are in degrees (yes) or radians (no).

endheader
time	pelvis_tilt	pelvis_list	pelvis_rotation	pelvis_tx	pelvis_ty	pelvis_tz	hip_flexion_r	hip_adduction_r	hip_rotation_r	knee_angle_r	knee_angle_r_beta	ankle_angle_r	subtalar_angle_r	mtp_angle_r	hip_flexion_l	hip_adduction_l	hip_rotation_l	knee_angle_l	knee_angle_l_beta	ankle_angle_l	subtalar_angle_l	mtp_angle_l	lumbar_extension	lumbar_bending	lumbar_rotation	arm_flex_r	arm_add_r	arm_rot_r	elbow_flex_r	pro_sup_r	arm_flex_l	arm_add_l	arm_rot_l	elbow_flex_l	pro_sup_l
      1.55000000	    -20.98049305	      1.87095071	     -3.74193781	     -0.28293720	      0.59239131	     -0.57401945	     89.06068630	     -1.84762239	      9.93223181	    110.46300704	      1.92794317	     37.64051599	    -11.76712779	     -7.49994967	     92.67574406	     -8.15156397	      2.11548658	    107.89814783	      1.88317794	     35.25808165	    -11.77529344	     -7.49994967	    -25.54300382	      0.36932351	      0.33954039	    -12.38813639	    -14.58562883	    -28.82847668	     97.64343115	    105.14202637	    -19.04691361	    -17.90352582	    -29.01376899	     88.29600989	    106.76844768
      1.56000000	    -21.23417113	      2.18891912	     -3.38368077	     -0.28170716	      0.58726706	     -0.57494937	     89.70680789	     -2.12794398	     10.45316282	    111.35515573	      1.94351411	     38.16495739	    -12.05674831	     -7.49995010	     93.40919769	     -7.54522431	      1.98712203	    108.69583916	      1.89710028	     35.25012444	    -11.92110501	     -7.49995010	    -26.26070765	      0.02203308	      0.19509564	     -8.69665753	    -13.64510255	    -27.20666773	     97.50206966	    105.39253904	    -13.76472658	    -16.97221369	    -27.26743533	     89.15057753	    106.90960779
      1.57000000	    -21.54055418	      2.64045873	     -3.17851830	     -0.28035554	      0.58282121	     -0.57515498	     90.33550644	     -2.15711523	     11.24100210	    112.14146068	      1.95723772	     38.94838653	    -11.76125331	     -7.49995305	     94.06555557	     -7.20862357	      1.67990659	    109.34570207	      1.90844252	     35.11844693	    -12.35131874	     -7.49995305	    -26.93154044	     -0.60055887	      0.50697229	     -5.13657686	    -12.65033471	    -25.92397000	     97.41907542	    106.60372421	     -7.91980109	    -16.40065924	    -24.51423460	     89.39497287	    107.09706106
      1.58000000	    -21.81245872	      2.98139707	     -3.02727466	     -0.27894239	      0.57921480	     -0.57504297	     90.83664939	     -1.99652212	     11.90569627	    112.78903840	      1.96854008	     39.18776644	    -12.06704472	     -7.49995356	     94.56814873	     -6.91869661	      1.53328118	    109.88416204	      1.91784042	     35.27192490	    -12.39822519	     -7.49995356	    -27.66919454	     -1.27489053	      0.34568923	     -0.90042668	    -11.91387775	    -23.71815418	     96.88218094	    106.81814957	     -2.45350190	    -15.49284080	    -22.44005726	     90.27176164	    107.28037727
      1.59000000	    -22.03220067	      3.32665231	     -2.87718227	     -0.27768193	      0.57617597	     -0.57486790	     91.31737241	     -1.80677619	     12.54404503	    113.41144973	      1.97940321	     39.26344858	    -12.32002209	     -7.49995401	     94.92274800	     -6.54947152	      1.42479852	    110.30098933	      1.92511543	     35.41718287	    -12.49991602	     -7.49995401	    -28.25277756	     -1.94886165	      0.19441804	      3.59450627	    -11.27362859	    -21.35039622	     96.17585212	    107.02143548	      3.21834240	    -14.63868071	    -19.80492154	     90.84621967	    107.40978873
      1.60000000	    -22.24342419	      3.70064850	     -2.79173486	     -0.27664228	      0.57341292	     -0.57442014	     91.86295502	     -1.52865167	     13.16293757	    114.02386655	      1.99009190	     39.16241797	    -12.64250861	     -7.49995460	     95.27116145	     -6.26061211	      1.35077524	    110.69352354	      1.93196645	     35.46449911	    -12.54788181	     -7.49995460	    -28.61599360	     -2.63642892	      0.11333793	      8.20933945	    -10.68171277	    -18.77122707	     95.50601481	    107.29611000	      9.13190072	    -13.96352772	    -16.56121689	     90.71110429	    107.45197396
      1.61000000	    -22.36261633	      4.02743955	     -2.75576863	     -0.27563188	      0.57137688	     -0.57391425	     92.24412666	     -1.22695576	     13.66014622	    114.54277788	      1.99914861	     39.00925296	    -12.99414220	     -7.49995506	     95.50785309	     -6.11172005	      1.27595944	    111.02822165	      1.93780803	     35.35603553	    -12.43419189	     -7.49995506	    -29.04801831	     -3.34275663	      0.11256357	     12.82364237	    -10.23439309	    -15.99899495	     95.08143004	    107.54740267	     15.21042086	    -13.02410761	    -13.40797522	     90.65560919	    107.59225209
      1.62000000	    -22.49193168	      4.34394966	     -2.67488235	     -0.27461186	      0.56997289	     -0.57368184	     92.51718668	     -0.98172193	     14.18815556	    114.92129367	      2.00575496	     38.82019562	    -13.42199180	     -7.49995554	     95.68336293	     -5.90400034	      1.14972428	    111.24237836	      1.94154577	     35.36052735	    -12.43542282	     -7.49995554	    -29.46616351	     -3.98911730	     -0.05039846	     17.54582858	     -9.87186406	    -12.98227809	     94.95472296	    107.82583559	     21.29693472	    -12.22741703	     -9.87544073	     90.27190732	    107.79104914
      1.63000000	    -22.61169281	      4.66537455	     -2.53680340	     -0.27347949	      0.56912424	     -0.57392930	     92.71035900	     -0.88945216	     14.74791677	    115.21266804	      2.01084040	     38.58735670	    -13.78663123	     -7.49995609	     95.76846347	     -5.51672048	      0.97033315	    111.37071645	      1.94378569	     35.40785150	    -12.64017974	     -7.49995609	    -29.78968457	     -4.55315448	     -0.27787866	     22.36882241	     -9.52353568	     -9.96160482	     95.04503538	    108.12436436	     27.37346284	    -11.22168398	     -6.07717704	     89.59655939	    107.96964318
      1.64000000	    -22.72203014	      4.87987555	     -2.43201109	     -0.27233901	      0.56917170	     -0.57422089	     92.75549840	     -0.83949750	     15.15311497	    115.27706103	      2.01196427	     38.39341482	    -13.93949375	     -7.49995647	     95.75194513	     -5.18278586	      0.89278992	    111.33182446	      1.94310690	     35.31013060	    -12.74940686	     -7.49995647	    -30.14653838	     -5.01363938	     -0.55649944	     27.41126633	     -8.96061908	     -7.10687297	     95.28203733	    108.37447428	     33.35585776	     -9.77371768	     -2.70944037	     89.17392096	    108.13227307
      1.65000000	    -22.91301367	      5.07389192	     -2.45357055	     -0.27115515	      0.56945548	     -0.57396861	     92.85825945	     -0.63314462	     15.45175269	    115.29688353	      2.01231023	     38.11561061	    -14.35045794	     -7.49995783	     95.80338077	     -5.07959503	      0.82942129	    111.32646194	      1.94301331	     35.09656130	    -13.02277061	     -7.49995783	    -30.20181327	     -5.58109550	     -0.39850070	     32.31084785	     -8.36398784	     -4.59722896	     95.76743235	    108.77181429	     39.56860156	     -8.25718847	      1.41743495	     88.03320915	    108.32113060
      1.66000000	    -22.99726613	      5.08408071	     -2.44988361	     -0.26991726	      0.57067988	     -0.57378933	     92.64257793	     -0.46248786	     15.56572542	    115.12480269	      2.00930686	     38.05853049	    -14.44900497	     -7.49995823	     95.67097892	     -4.98497502	      0.96038789	    111.20523105	      1.94089743	     34.83606998	    -12.86676139	     -7.49995823	    -30.43352290	     -5.84170728	     -0.75464543	     37.71862366	     -7.50365406	     -1.49998548	     96.30352232	    109.02069015	     45.15741769	     -6.74262740	      4.29984642	     88.16104891	    108.54728899
      1.67000000	    -23.26791677	      5.12176145	     -2.35860626	     -0.26868283	      0.57190361	     -0.57382668	     92.55448732	     -0.36026390	     15.76363384	    114.89117287	      2.00522925	     38.05599877	    -14.57736683	     -7.49995864	     95.69983777	     -4.84305866	      0.99224381	    111.00191546	      1.93734890	     34.67925902	    -12.79339083	     -7.49995864	    -30.28163159	     -6.05054344	     -1.21561748	     43.08545514	     -6.73791279	      1.71028944	     96.94134892	    109.27654927	     50.56942040	     -5.38574765	      7.33433639	     88.38253932	    108.77183315
      1.68000000	    -23.59828495	      5.15649185	     -2.29339253	     -0.26742951	      0.57346686	     -0.57381029	     92.45484969	     -0.22683438	     15.95203183	    114.55609066	      1.99938096	     38.06524235	    -14.73295608	     -7.49995931	     95.74762531	     -4.82146677	      0.93699381	    110.72623463	      1.93253736	     34.54795249	    -12.80440672	     -7.49995931	    -29.96175328	     -6.24887630	     -1.68264868	     48.46109261	     -5.93847536	      4.69746397	     97.75326650	    109.56124179	     55.93124741	     -4.11147106	     10.26105446	     88.83907763	    108.94652727
